<svg width="156" height="53" viewBox="0 0 156 50" fill="none" xmlns="http://www.w3.org/2000/svg">
<g clip-path="url(#clip0_0_53)" filter="url(#filter0_d_0_53)">
<g filter="url(#filter1_d_0_53)">
<path d="M4 21C4 9.40202 13.402 0 25 0H131C142.598 0 152 9.40202 152 21C152 32.598 142.598 42 131 42H25C13.402 42 4 32.598 4 21Z" fill="white"/>
</g>
<ellipse cx="25" cy="21" rx="14.5" ry="14" stroke="#979797" stroke-dasharray="4"/>
<path d="M32.3125 19.7656V21.4609H24.5156V19.7656H32.3125ZM29.3281 16.5781V24.8594H27.5078V16.5781H29.3281Z" fill="#898989"/>
<path d="M53.396 16.408H55.256L58.484 25H56.696L55.976 22.948H52.688L51.968 25H50.18L53.396 16.408ZM55.448 21.46L54.692 19.3L54.38 18.268H54.284L53.972 19.3L53.204 21.46H55.448ZM60.599 17.944H58.199V16.408H64.619V17.944H62.219V25H60.599V17.944ZM67.6537 17.944H65.2537V16.408H71.6737V17.944H69.2737V25H67.6537V17.944ZM72.9684 16.408H76.1004C76.6604 16.408 77.1564 16.524 77.5884 16.756C78.0284 16.988 78.3684 17.312 78.6084 17.728C78.8484 18.136 78.9684 18.6 78.9684 19.12C78.9684 19.672 78.7924 20.164 78.4404 20.596C78.0964 21.02 77.6604 21.328 77.1324 21.52L77.1204 21.604L79.4244 24.904V25H77.5644L75.3444 21.772H74.5884V25H72.9684V16.408ZM76.0884 20.284C76.4564 20.284 76.7564 20.172 76.9884 19.948C77.2204 19.724 77.3364 19.44 77.3364 19.096C77.3364 18.768 77.2244 18.488 77.0004 18.256C76.7844 18.024 76.4884 17.908 76.1124 17.908H74.5884V20.284H76.0884ZM80.5738 16.408H82.1938V25H80.5738V16.408ZM84.1481 16.408H87.5081C87.9881 16.408 88.4281 16.508 88.8281 16.708C89.2361 16.908 89.5561 17.18 89.7881 17.524C90.0201 17.868 90.1361 18.244 90.1361 18.652C90.1361 19.084 90.0281 19.46 89.8121 19.78C89.6041 20.092 89.3281 20.332 88.9841 20.5V20.596C89.4321 20.756 89.7881 21.012 90.0521 21.364C90.3161 21.708 90.4481 22.124 90.4481 22.612C90.4481 23.084 90.3201 23.504 90.0641 23.872C89.8161 24.232 89.4761 24.512 89.0441 24.712C88.6201 24.904 88.1481 25 87.6281 25H84.1481V16.408ZM87.3881 19.912C87.7401 19.912 88.0201 19.816 88.2281 19.624C88.4441 19.424 88.5521 19.176 88.5521 18.88C88.5521 18.592 88.4481 18.352 88.2401 18.16C88.0401 17.96 87.7721 17.86 87.4361 17.86H85.7681V19.912H87.3881ZM87.5681 23.524C87.9601 23.524 88.2641 23.424 88.4801 23.224C88.7041 23.016 88.8161 22.748 88.8161 22.42C88.8161 22.092 88.7041 21.824 88.4801 21.616C88.2561 21.408 87.9361 21.304 87.5201 21.304H85.7681V23.524H87.5681ZM95.0976 25.192C94.4256 25.192 93.8376 25.048 93.3336 24.76C92.8376 24.472 92.4496 24.056 92.1696 23.512C91.8976 22.968 91.7616 22.324 91.7616 21.58V16.408H93.3696V21.676C93.3696 22.268 93.5176 22.748 93.8136 23.116C94.1176 23.476 94.5456 23.656 95.0976 23.656C95.6496 23.656 96.0736 23.476 96.3696 23.116C96.6736 22.748 96.8256 22.268 96.8256 21.676V16.408H98.4336V21.58C98.4336 22.292 98.2976 22.92 98.0256 23.464C97.7536 24.008 97.3656 24.432 96.8616 24.736C96.3576 25.04 95.7696 25.192 95.0976 25.192ZM100.25 16.408H105.698V17.944H101.87V19.936H105.314V21.472H101.87V23.464H105.698V25H100.25V16.408ZM107.363 16.408H110.495C111.055 16.408 111.551 16.524 111.983 16.756C112.423 16.988 112.763 17.312 113.003 17.728C113.243 18.136 113.363 18.6 113.363 19.12C113.363 19.672 113.187 20.164 112.835 20.596C112.491 21.02 112.055 21.328 111.527 21.52L111.515 21.604L113.819 24.904V25H111.959L109.739 21.772H108.983V25H107.363V16.408ZM110.483 20.284C110.851 20.284 111.151 20.172 111.383 19.948C111.615 19.724 111.731 19.44 111.731 19.096C111.731 18.768 111.619 18.488 111.395 18.256C111.179 18.024 110.883 17.908 110.507 17.908H108.983V20.284H110.483ZM119.83 16.408H121.69L124.918 25H123.13L122.41 22.948H119.122L118.402 25H116.614L119.83 16.408ZM121.882 21.46L121.126 19.3L120.814 18.268H120.718L120.406 19.3L119.638 21.46H121.882ZM119.062 14.104H120.898L121.402 15.736H120.13L119.062 14.104Z" fill="#AEAFAF"/>
</g>
<defs>
<filter id="filter0_d_0_53" x="0" y="0" width="168" height="62" filterUnits="userSpaceOnUse" color-interpolation-filters="sRGB">
<feFlood flood-opacity="0" result="BackgroundImageFix"/>
<feColorMatrix in="SourceAlpha" type="matrix" values="0 0 0 0 0 0 0 0 0 0 0 0 0 0 0 0 0 0 127 0" result="hardAlpha"/>
<feOffset dy="4"/>
<feGaussianBlur stdDeviation="2"/>
<feComposite in2="hardAlpha" operator="out"/>
<feColorMatrix type="matrix" values="0 0 0 0 0 0 0 0 0 0 0 0 0 0 0 0 0 0 0.25 0"/>
<feBlend mode="normal" in2="BackgroundImageFix" result="effect1_dropShadow_0_53"/>
<feBlend mode="normal" in="SourceGraphic" in2="effect1_dropShadow_0_53" result="shape"/>
</filter>
<filter id="filter1_d_0_53" x="-6" y="-7" width="168" height="62" filterUnits="userSpaceOnUse" color-interpolation-filters="sRGB">
<feFlood flood-opacity="0" result="BackgroundImageFix"/>
<feColorMatrix in="SourceAlpha" type="matrix" values="0 0 0 0 0 0 0 0 0 0 0 0 0 0 0 0 0 0 127 0" result="hardAlpha"/>
<feOffset dy="3"/>
<feGaussianBlur stdDeviation="5"/>
<feColorMatrix type="matrix" values="0 0 0 0 0.894118 0 0 0 0 0.909804 0 0 0 0 0.921569 0 0 0 1 0"/>
<feBlend mode="normal" in2="BackgroundImageFix" result="effect1_dropShadow_0_53"/>
<feBlend mode="normal" in="SourceGraphic" in2="effect1_dropShadow_0_53" result="shape"/>
</filter>
<clipPath id="clip0_0_53">
<rect width="148" height="42" fill="white" transform="translate(4)"/>
</clipPath>
</defs>
</svg>
