<svg width="148" height="42" viewBox="0 0 148 42" fill="none" xmlns="http://www.w3.org/2000/svg">
<g clip-path="url(#clip0_0_18)">
<g filter="url(#filter0_d_0_18)">
<path d="M0 21C0 9.40202 9.40202 0 21 0H127C138.598 0 148 9.40202 148 21C148 32.598 138.598 42 127 42H21C9.40202 42 0 32.598 0 21Z" fill="white"/>
</g>
<circle cx="25" cy="21" r="14" stroke="#979797" stroke-dasharray="4"/>
<path opacity="0.3" fill-rule="evenodd" clip-rule="evenodd" d="M18.7778 21C18.7778 17.5689 21.5689 14.7778 25.0001 14.7778C28.4312 14.7778 31.2223 17.5689 31.2223 21C31.2223 24.4311 28.4312 27.2222 25.0001 27.2222C21.5689 27.2222 18.7778 24.4311 18.7778 21ZM24.1112 21.8889L28.3334 24.4222L29.0001 23.3289L25.4445 21.2222V16.5555H24.1112V21.8889Z" fill="#909191"/>
<path d="M25.4444 16.5556H24.1111V21.8889L28.3333 24.4222L29 23.3289L25.4444 21.2222V16.5556Z" fill="#909191"/>
<path fill-rule="evenodd" clip-rule="evenodd" d="M17 21C17 16.5822 20.5822 13 25 13C29.4178 13 33 16.5822 33 21C33 25.4178 29.4178 29 25 29C20.5822 29 17 25.4178 17 21ZM18.7778 21C18.7778 24.4311 21.5689 27.2222 25 27.2222C28.4311 27.2222 31.2222 24.4311 31.2222 21C31.2222 17.5689 28.4311 14.7778 25 14.7778C21.5689 14.7778 18.7778 17.5689 18.7778 21Z" fill="#909191"/>
<path d="M46.984 16.408H52.432V17.944H48.604V19.936H52.048V21.472H48.604V23.464H52.432V25H46.984V16.408ZM49.576 14.104H51.412L50.332 15.736H49.072L49.576 14.104ZM57.9309 25.192C57.0989 25.192 56.3389 24.996 55.6509 24.604C54.9629 24.204 54.4189 23.664 54.0189 22.984C53.6269 22.296 53.4309 21.536 53.4309 20.704C53.4309 19.872 53.6269 19.116 54.0189 18.436C54.4189 17.748 54.9629 17.208 55.6509 16.816C56.3389 16.416 57.0989 16.216 57.9309 16.216C59.2269 16.216 60.2989 16.684 61.1469 17.62L60.0069 18.724C59.4549 18.076 58.7669 17.752 57.9429 17.752C57.4069 17.752 56.9189 17.876 56.4789 18.124C56.0389 18.364 55.6909 18.708 55.4349 19.156C55.1869 19.604 55.0629 20.12 55.0629 20.704C55.0629 21.288 55.1869 21.804 55.4349 22.252C55.6909 22.7 56.0389 23.048 56.4789 23.296C56.9189 23.536 57.4069 23.656 57.9429 23.656C58.8469 23.656 59.6029 23.28 60.2109 22.528L61.3629 23.62C60.9389 24.132 60.4349 24.524 59.8509 24.796C59.2749 25.06 58.6349 25.192 57.9309 25.192ZM62.8629 16.408H64.4829V19.84H68.0949V16.408H69.7149V25H68.0949V21.376H64.4829V25H62.8629V16.408ZM71.6871 16.408H77.1351V17.944H73.3071V19.936H76.7511V21.472H73.3071V23.464H77.1351V25H71.6871V16.408ZM74.2791 14.104H76.1151L75.0351 15.736H73.7751L74.2791 14.104ZM81.2124 16.408H83.0724L86.3004 25H84.5124L83.7924 22.948H80.5044L79.7844 25H77.9964L81.2124 16.408ZM83.2644 21.46L82.5084 19.3L82.1964 18.268H82.1004L81.7884 19.3L81.0204 21.46H83.2644ZM87.4606 16.408H89.3446L92.8006 22.168H92.8966L92.8006 20.512V16.408H94.4086V25H92.7046L89.0566 18.916H88.9606L89.0566 20.572V25H87.4606V16.408ZM100.318 25.192C99.4856 25.192 98.7256 24.996 98.0376 24.604C97.3496 24.204 96.8056 23.664 96.4056 22.984C96.0136 22.296 95.8176 21.536 95.8176 20.704C95.8176 19.872 96.0136 19.116 96.4056 18.436C96.8056 17.748 97.3496 17.208 98.0376 16.816C98.7256 16.416 99.4856 16.216 100.318 16.216C101.614 16.216 102.686 16.684 103.534 17.62L102.394 18.724C101.842 18.076 101.154 17.752 100.33 17.752C99.7936 17.752 99.3056 17.876 98.8656 18.124C98.4256 18.364 98.0776 18.708 97.8216 19.156C97.5736 19.604 97.4496 20.12 97.4496 20.704C97.4496 21.288 97.5736 21.804 97.8216 22.252C98.0776 22.7 98.4256 23.048 98.8656 23.296C99.3056 23.536 99.7936 23.656 100.33 23.656C101.234 23.656 101.99 23.28 102.598 22.528L103.75 23.62C103.326 24.132 102.822 24.524 102.238 24.796C101.662 25.06 101.022 25.192 100.318 25.192ZM105.25 16.408H110.698V17.944H106.87V19.936H110.314V21.472H106.87V23.464H110.698V25H105.25V16.408Z" fill="#B7B8B8"/>
</g>
<defs>
<filter id="filter0_d_0_18" x="-10" y="-7" width="168" height="62" filterUnits="userSpaceOnUse" color-interpolation-filters="sRGB">
<feFlood flood-opacity="0" result="BackgroundImageFix"/>
<feColorMatrix in="SourceAlpha" type="matrix" values="0 0 0 0 0 0 0 0 0 0 0 0 0 0 0 0 0 0 127 0" result="hardAlpha"/>
<feOffset dy="3"/>
<feGaussianBlur stdDeviation="5"/>
<feColorMatrix type="matrix" values="0 0 0 0 0.894118 0 0 0 0 0.909804 0 0 0 0 0.921569 0 0 0 1 0"/>
<feBlend mode="normal" in2="BackgroundImageFix" result="effect1_dropShadow_0_18"/>
<feBlend mode="normal" in="SourceGraphic" in2="effect1_dropShadow_0_18" result="shape"/>
</filter>
<clipPath id="clip0_0_18">
<rect width="148" height="42" fill="white"/>
</clipPath>
</defs>
</svg>
